<svg xmlns="http://www.w3.org/2000/svg" width="1093" height="722" fill="none"><path fill="none" d="M0 0h1093v722H0z"/><path fill="#322E4B" d="M82.334 678.98c23.43 0 40.095-16.17 40.095-38.94v-76.395H94.214V637.4c0 9.405-6.435 16.005-15.345 16.005-6.6 0-13.695-4.62-17.16-11.22L43.394 660.17c7.755 11.055 24.09 18.81 38.94 18.81Zm112.348 0c31.02 0 52.635-21.285 52.635-51.645v-63.69h-28.05v62.37c0 16.005-10.23 27.39-24.585 27.39-14.19 0-24.42-11.385-24.42-27.39v-62.37h-28.215v63.69c0 30.36 21.78 51.645 52.635 51.645Zm73.559-1.98h28.215v-66.99L345.791 677h28.215V563.645h-28.215v66.99l-49.335-66.99h-28.215V677Zm179.419-43.725h24.255v14.19c-5.61 3.795-12.375 5.94-18.975 5.94-17.655 0-32.67-15.18-32.67-33.165 0-17.82 15.015-33 32.67-33 9.735 0 19.635 4.62 25.74 12.21l20.625-18.315c-11.55-12.21-28.875-19.47-46.365-19.47-33.495 0-61.545 26.73-61.545 58.575 0 31.845 28.05 58.74 61.545 58.74 17.49 0 34.815-7.26 46.365-19.635V611.99H447.66v21.285Zm98.206 18.48v-88.11h-28.05V677h82.665v-25.245h-54.615Zm158.709-62.865v-25.245H615.31V677h89.265v-25.245h-61.05V631.79h55.44v-25.245h-55.44V588.89h61.05ZM725.774 677h55.935c20.295 0 34.815-12.705 34.815-30.855 0-12.54-7.59-22.77-20.79-29.205 10.23-5.775 16.17-13.2 16.17-25.08 0-16.5-13.365-28.215-32.34-28.215h-53.79V677Zm16.665-66.165V578.33h33c11.385 0 19.47 6.93 19.47 16.335 0 9.405-8.085 16.17-19.47 16.17h-33Zm0 51.48v-37.29h35.475c12.705 0 21.615 7.755 21.615 18.645s-8.91 18.645-21.615 18.645h-35.475Zm144.454 16.665c28.38 0 48.675-20.625 48.675-49.665v-65.67h-16.83v65.34c0 20.295-13.2 34.815-31.845 34.815-18.81 0-32.01-14.52-32.01-34.815v-65.34h-16.665v65.67c0 29.04 20.13 49.665 48.675 49.665Zm114.677-.165c26.73 0 41.25-14.52 41.25-33.66 0-20.295-15.67-27.885-38.28-33.165-18.643-4.455-28.378-8.085-28.378-18.645 0-9.075 8.91-17.16 21.615-17.16 11.553 0 22.933 5.115 32.503 13.86l9.57-12.54c-10.89-9.57-23.92-16.005-41.413-16.005-22.77 0-39.27 14.355-39.27 33.33 0 20.46 15.345 27.39 38.445 32.835 18.978 4.29 28.378 8.415 28.378 19.14 0 9.075-8.08 17.325-23.76 17.325-15.343 0-27.223-6.27-37.288-15.84l-10.065 12.375c12.045 11.55 27.72 18.15 46.693 18.15ZM977.369 451.17c0 24.4-191.619 44.176-428.054 44.176-236.434 0-428.054-19.776-428.054-44.176 0-24.399 191.62-44.176 428.054-44.176 236.435 0 428.054 19.777 428.054 44.176ZM0 251.767c0 2.747 150.329 13.917 335.723 13.917s185.44-27.833 0-27.833C150.284 237.851 0 249.021 0 251.767Z"/><path fill="#EF9D27" d="M215.789 108.435a69.206 69.206 0 0 1 2.793-13.367c-.412 4.44-1.374 8.973-2.793 13.367Z"/><path fill="#322E4B" d="M470.077 341.813c.32 3.067.458 6.134.458 9.247v1.74c-.092 4.807-.458 9.522-1.236 14.1-.596 3.799-1.465 7.461-2.518 11.124a42.788 42.788 0 0 1-.641 2.289c-3.845 12.497-10.162 23.942-18.311 33.83-18.218 22.019-45.684 36.027-76.354 36.027-54.657 0-99.106-44.45-99.106-99.11 0-26.78 10.666-51.134 27.969-68.942 3.205-3.296 6.592-6.409 10.208-9.155a93.046 93.046 0 0 1 11.582-7.783 43.62 43.62 0 0 1 4.532-2.472c8.285-4.257 17.349-7.324 26.825-9.064 5.813-1.144 11.856-1.694 17.99-1.694 7.827 0 15.426.916 22.705 2.701 40.832 9.568 72.006 44.497 75.943 87.162h-.046ZM868.788 351.06c0 54.66-44.449 99.11-99.105 99.11-54.657 0-99.106-44.45-99.106-99.11 0-54.659 44.449-99.11 99.106-99.11 54.656 0 99.105 44.451 99.105 99.11ZM51.681 196.833c0 2.747 104.37 13.917 233.093 13.917 128.723 0 128.723-27.833 0-27.833s-233.093 11.17-233.093 13.916Z"/><path fill="#322E4B" d="M428.832 310.73c-5.035 1.739-12.405 3.341-22.201 4.623-11.719 1.557-26.917 2.701-45.548 3.159-4.165.092-8.56.183-13.183.183h-.046c-1.877.046-3.799.046-5.768.046-14.877 0-29.48-.137-43.487-.458-8.972-.137-17.716-.366-26.23-.641-92.194-2.884-159.027-10.62-159.027-12.818 0-2.746 102.447-13.916 228.79-13.916 3.113 0 6.134 0 9.064.091 4.898 0 9.613.092 14.099.275 6.317.32 12.405 1.144 18.402 2.289 16.571 3.159 31.952 9.11 45.135 17.167Z"/><path fill="#F9CF10" d="M719.741 410.435c-44.175 10.208-92.469 15.336-143.555 15.198-12.68-.046-25.955-.458-39.505-1.144-22.98-1.191-45.501-3.571-66.971-7.05l-.503-.092-.549-.137c-36.988-7.645-73.883-20.234-119.568-40.788-91.415-41.247-159.027-128.225-145.431-186.776.915-10.117-.458-19.913-4.074-28.428l-.275-.687c-.183-.549-.458-1.053-.732-1.556l-.184-.367-.137-.366c-.137-.274-.275-.595-.412-.87l-.275-.549c-5.676-11.444-15.563-23.164-27.832-33.052-5.447-4.395-11.215-8.331-17.166-11.582-3.204-1.739-6.271-3.25-9.155-4.486l-8.331-3.525v-9.064c0-8.149 3.708-17.945 10.208-26.826 5.493-7.6 12.268-13.505 18.997-16.663l5.585-2.61 5.63 2.426a153.01 153.01 0 0 1 6.134 2.839c.275.137.55.229.733.366a77.809 77.809 0 0 1 3.936 1.923c4.761 2.38 9.522 5.173 14.145 8.24 5.356 3.57 10.437 7.553 15.198 11.81 2.289 2.015 4.532 4.029 6.912 5.952l.321.274c.412.367.824.687 1.236 1.008l.595.457c.778.641 1.602 1.282 2.472 1.877l.366.275.32.275c.595.503 1.191.915 1.786 1.373a463.282 463.282 0 0 1 5.172 3.8c22.705 16.663 34.378 19.959 40.238 19.638.457-.091.915-.229 1.327-.32 27.649-6.409 56.351 3.021 91.049 19.181l8.698 4.029v.412a1905.54 1905.54 0 0 1 20.05 9.842c36.804 18.174 77.957 38.499 125.839 48.937l18.127 3.342c.778.137 1.557.229 2.335.366l1.373.183c1.236.183 2.289.32 3.342.504l3.387.457c1.099.138 2.197.321 3.296.412l1.556.183c.458.046.916.092 1.328.138 6.866.686 13.138 1.098 19.409 1.282l3.891-.916 1.373.87c46.326-1.007 86.106-5.539 121.491-13.734 36.895-8.56 62.942-19.684 85.876-29.572 17.99-7.737 34.973-15.016 53.65-19.319 15.976-3.708 32.089-4.944 49.301-3.754h.641l.641.138s.824.137 2.838-.367c2.838-.641 6.454-2.06 9.887-3.387 4.166-1.602 8.469-3.25 12.818-4.258 13.458-3.113 21.194 1.969 25.314 6.776 25.681 29.847 20.004 50.722 16.617 63.174-.732 2.609-1.373 5.081-1.419 6.454v1.099l-.229 1.099c-18.494 99.796-105.652 174.781-239.135 205.636Z"/><path fill="#F8E493" d="M962.63 168.13c2.288 11.903-.229 21.196-2.06 28.017-.687 2.609-1.419 5.035-1.419 6.454v1.099l-.229 1.099c-18.494 99.796-105.652 174.735-239.09 205.636-44.174 10.208-92.468 15.336-143.554 15.198-12.68 0-25.955-.412-39.505-1.144-22.98-1.191-45.502-3.525-66.971-7.004h-.503l-.55-.229c-36.987-7.645-73.883-20.234-119.567-40.834-85.282-38.454-149.78-116.689-147.08-174.553.183-4.166.687-8.24 1.602-12.177 0-.183 0-.366.046-.549 5.814 56.261 67.246 126.531 146.668 162.329 45.684 20.601 82.58 33.144 119.567 40.789l.549.137h.504c21.469 3.525 44.037 5.906 66.971 7.096a788.133 788.133 0 0 0 39.505 1.144c51.086.138 99.38-4.99 143.554-15.198 133.484-30.855 220.596-105.794 239.09-205.636l.183-1.099v-1.099c.046-1.419.778-3.845 1.465-6.454.274-.962.549-2.015.778-3.067l.046.045Z"/><path fill="#EF9D27" d="M962.63 168.13c-.229 1.053-.55 2.106-.779 3.067-.686 2.61-1.419 5.036-1.419 6.455v1.099l-.229 1.099c-18.493 99.842-105.651 174.735-239.089 205.636-44.174 10.208-92.468 15.335-143.555 15.198-12.68 0-25.955-.412-39.505-1.144-22.979-1.191-45.501-3.525-66.97-7.005h-.504l-.549-.228c-36.987-7.645-73.883-20.234-119.568-40.789-79.376-35.799-140.808-106.114-146.667-162.33.366-4.623.32-9.247-.32-13.687a69.873 69.873 0 0 1 1.51-10.758c.916-10.072-.503-19.914-4.074-28.429 3.571 4.807 6.592 9.66 8.972 14.466.366.641.687 1.328 1.007 1.969.504 1.007 1.007 2.06 1.374 3.113.229.595.503 1.236.778 1.922.458-.366.961-.824 1.465-1.236 4.669-3.891 9.384-7.187 14.007-9.842-1.19 4.578-1.693 9.339-1.556 14.283 1.144 42.711 49.484 97.645 117.599 128.362 40.146 18.083 72.968 29.573 106.522 37.401l.503.137.504.092c19.592 3.8 40.283 6.775 61.523 8.927 12.497 1.236 24.856 2.243 36.575 2.93 47.516 2.838 93.063 1.51 135.361-3.892 127.716-16.342 217.529-68.713 246.322-143.652l.366-.824.137-.87c.184-1.053 1.099-2.884 2.06-4.852 4.349-8.835 11.628-23.393-5.493-45.641a57.605 57.605 0 0 0-2.609-3.25c-2.701-3.205-7.782-6.73-16.754-6.867 3.021-1.145 6.042-2.152 9.155-2.838 13.458-3.113 21.195 1.968 25.314 6.775 11.673 13.55 16.846 25.224 18.677 35.158l-.091.045Z"/><path fill="#322E4B" d="M216.11 197.886c-3.662 1.648-7.187 2.793-10.346 3.434 3.617 15.61 11.124 32.044 21.744 48.296-9.201-18.357-13.458-36.211-11.398-51.73ZM954.298 124c-5.401-6.272-17.669-16.068-38.818-11.17-5.264 1.236-10.3 3.159-14.648 4.853-2.884 1.053-5.814 2.289-7.736 2.746h-.412c-18.586-1.281-36.026 0-53.376 4.029-19.821 4.578-37.353 12.131-55.938 20.096-22.476 9.614-47.837 20.509-83.542 28.795-33.462 7.737-71.045 12.085-114.624 13.23-1.053 0-2.151.092-3.296.092-2.517.045-4.898.091-6.912 0h-.549c-1.099 0-2.106-.092-2.976-.092a262.08 262.08 0 0 1-13.046-1.007h-.641c-.275-.046-.549-.092-.87-.138-.595-.045-1.144-.137-1.739-.183-.87-.091-1.74-.229-2.609-.366l-1.511-.229-1.968-.274c-1.007-.138-1.969-.229-2.93-.412h-.321l-1.464-.275c-.595-.046-1.191-.137-1.831-.229l-17.807-3.296c-46.28-10.117-86.563-30.031-122.589-47.793-3.937-1.922-7.828-3.845-11.673-5.722v-.595l-17.349-8.103c-32.181-14.923-66.513-27.741-99.747-20.142-2.335-.32-10.757-2.38-30.579-16.938a125.012 125.012 0 0 0-5.401-3.983c-.229-.183-.595-.458-.916-.732l-.641-.55-.686-.503a27.763 27.763 0 0 1-1.831-1.42l-.595-.457-.595-.458s-.412-.366-.641-.55l-.183-.182-.184-.092c-2.059-1.74-4.211-3.662-6.5-5.585-5.127-4.67-10.757-8.972-16.571-12.91-5.127-3.478-10.391-6.5-15.747-9.155-1.373-.687-2.792-1.373-4.165-2.06-.229-.092-.458-.229-.733-.32a96.774 96.774 0 0 0-6.546-3.022L169.51 34l-11.124 5.173c-8.789 4.12-17.487 11.628-24.353 21.104-4.761 6.5-12.863 19.822-12.817 34.883v18.174l16.708 7.05c2.472 1.052 5.127 2.426 7.919 3.936 5.173 2.839 10.254 6.272 15.152 10.209 10.758 8.698 19.318 18.769 24.17 28.474l.275.595.229.412.228.595.367.687s.091.137.091.183l.183.458.321.641c2.563 6.226 3.662 13.459 3.113 20.966-7.233 33.052 6.088 72.879 37.673 112.432a297.36 297.36 0 0 0 14.237 16.434 385.134 385.134 0 0 0 9.567 9.751c3.296 3.204 6.638 6.363 10.117 9.385a306.51 306.51 0 0 0 10.894 9.292c2.427 2.015 4.899 3.937 7.416 5.86 4.853 3.754 9.888 7.37 14.969 10.85a194.9 194.9 0 0 0 6.409 4.257c11.49 7.508 23.437 14.237 35.522 20.005a283.195 283.195 0 0 0 6.5 3.067c8.469 3.8 16.663 7.371 24.582 10.621a745.79 745.79 0 0 0 13.962 5.63c4.349 1.74 8.652 3.342 12.909 4.899 3.662 1.373 7.324 2.655 10.895 3.891.686.275 1.327.503 2.014.732 10.437 3.571 20.599 6.684 30.624 9.385a435.925 435.925 0 0 0 27.283 6.546l.87.183 1.007.183c21.927 3.571 44.998 5.952 68.481 7.188 13.779.732 27.283 1.144 40.146 1.19 52.185.091 101.532-5.127 146.759-15.611 139.022-32.136 229.98-111.012 249.48-216.485l.413-2.152v-1.739c.183-.778.64-2.426 1.007-3.662 3.845-14.1 10.986-40.331-19.455-75.764l.045.092ZM537.414 410.801c-23.392-1.19-45.136-3.571-65.506-6.867-.046 0-.183 0-.229-.046a471.036 471.036 0 0 1-14.42-3.25 438.489 438.489 0 0 1-27.694-7.691c-5.86-1.785-11.627-3.708-17.395-5.722-4.624-1.602-9.156-3.296-13.733-4.99-4.761-1.831-9.567-3.662-14.282-5.63-9.888-3.983-19.684-8.195-29.435-12.589-18.722-8.469-36.437-18.998-52.642-30.855a298.11 298.11 0 0 1-17.166-13.55c-1.877-1.603-3.8-3.251-5.631-4.899-1.877-1.648-3.662-3.341-5.447-4.989a263.697 263.697 0 0 1-10.117-10.117c-15.472-16.16-27.878-33.281-36.209-49.945-9.201-18.357-13.458-36.21-11.398-51.729.275-3.617.732-7.325 1.51-11.124.367-9.934-1.098-19.822-4.623-28.932-.229-.595-.458-1.282-.778-1.877-.366-1.053-.87-2.106-1.373-3.113a26.333 26.333 0 0 0-1.008-1.968c-1.19-2.381-2.563-4.807-4.028-7.233-.732-1.191-1.556-2.427-2.38-3.663-.824-1.19-1.694-2.38-2.564-3.616-5.996-8.057-13.595-15.977-22.522-23.118a132.481 132.481 0 0 0-19.134-12.91c-3.479-1.922-7.004-3.662-10.437-5.127 0-4.944 2.655-11.994 7.599-18.723 4.257-5.86 9.292-10.254 13.641-12.269 2.106.87 4.074 1.832 5.997 2.793.137 0 .32.137.458.229.366.183.686.366 1.052.457l2.564 1.282a116.335 116.335 0 0 1 12.771 7.416c4.441 2.976 8.973 6.455 13.596 10.575a317.965 317.965 0 0 0 7.37 6.363 37.794 37.794 0 0 0 2.106 1.694 78.046 78.046 0 0 0 3.067 2.38c.824.733 1.648 1.328 2.563 1.97 1.602 1.144 3.25 2.38 4.898 3.616 18.494 13.55 36.759 23.942 50.949 22.248a26.331 26.331 0 0 1 2.014-.504c24.079-5.539 50.995 3.754 82.215 18.22 0 .137-.092.229-.092.366 47.424 22.065 104.691 56.033 176.056 67.34v-.091c1.373.274 2.746.457 4.165.64 1.786.275 3.571.504 5.356.733 1.831.275 3.617.549 5.402.732 1.098.092 2.151.229 3.204.321 7.187.732 14.42 1.19 21.835 1.373h.092c54.474-1.007 95.627-6.592 128.357-14.191 67.474-15.611 99.426-39.598 139.48-48.846 13.641-3.158 28.153-4.577 45.319-3.433 2.517.412 5.264.137 8.148-.549 7.461-1.74 15.747-6.043 22.705-7.645 2.609-.595 4.99-.824 7.095-.366 1.786.366 3.388 1.19 4.715 2.7 27.283 31.725 12.177 47.152 11.902 60.382-4.944 26.597-15.106 51.226-29.983 73.611-38.315 57.681-107.804 100.072-198.761 121.13-42.48 9.796-89.63 14.969-140.396 14.878a862.9 862.9 0 0 1-38.818-1.145v-.137Z"/><path fill="#322E4B" d="M246.093 139.565c-7.095 4.12-13.916 11.673-19.226 21.47-2.929 5.356-5.447 11.398-7.37 17.945a83.641 83.641 0 0 0-1.922 7.782 97.199 97.199 0 0 0-1.511 11.078c-5.218 2.381-10.025 3.708-14.099 4.029-4.395.275-7.919-.687-9.979-3.159-4.761-5.722-.366-17.67 10.025-29.939a102.818 102.818 0 0 1 10.94-10.941c.458-.366.962-.824 1.465-1.236 4.669-3.891 9.384-7.187 14.008-9.842 6.363-3.708 12.451-6.134 17.669-7.187Z"/><path fill="#CEBB6B" d="M390.884 420.506a84.593 84.593 0 0 1-15.427 23.164c-24.261 26.002-63.263 34.974-97.503 19.547-34.241-15.473-53.33-50.631-49.897-86.063.87-9.064 3.205-18.128 7.142-26.918 19.363-42.94 69.946-62.121 112.93-42.711 42.984 19.41 62.118 69.995 42.709 112.935l.046.046Z"/><path fill="#F8E493" d="M375.457 443.716c-24.261 26.002-63.263 34.974-97.503 19.547-34.241-15.473-53.33-50.631-49.897-86.063 24.262-26.002 63.263-34.975 97.504-19.548 34.241 15.473 53.329 50.631 49.896 86.064Z"/><path fill="#322E4B" d="M411.712 376.147c-2.655-28.612-17.487-53.698-39.322-70.041-10.712-8.057-23.163-14.008-36.621-17.167-4.852-1.144-9.796-1.968-14.923-2.289-2.563-.274-5.173-.366-7.782-.366-1.236 0-2.426 0-3.662.092a86.794 86.794 0 0 0-14.328 1.602c-9.476 1.694-18.494 4.807-26.825 9.064a43.349 43.349 0 0 0-4.532 2.472 93.102 93.102 0 0 0-11.581 7.782 65.912 65.912 0 0 0-6.684 5.723c-1.236 1.098-2.38 2.243-3.524 3.433-17.304 17.808-28.015 42.162-28.015 68.942 0 54.659 44.494 99.11 99.151 99.11 30.67 0 58.136-14.008 76.355-35.982 8.148-9.888 14.465-21.332 18.31-33.83.229-.778.504-1.556.641-2.289a84.806 84.806 0 0 0 2.518-11.124 90.323 90.323 0 0 0 1.236-14.145c.046-.55.046-1.145.046-1.74 0-3.113-.138-6.226-.458-9.247Zm-27.283 15.29c-.366 4.761-1.236 9.339-2.517 13.779a68.065 68.065 0 0 1-7.142 16.526c-.183.32-.32.595-.549.916a71.452 71.452 0 0 1-25.543 24.857c-10.483 6.089-22.659 9.522-35.614 9.522-39.551 0-71.686-32.136-71.686-71.643 0-7.736 1.236-15.107 3.571-22.111 3.342-10.529 9.109-19.913 16.663-27.696a72.901 72.901 0 0 1 10.482-8.926c1.328-.916 2.61-1.786 3.983-2.564a59.9 59.9 0 0 1 8.835-4.578 63.825 63.825 0 0 1 7.187-2.609 67.044 67.044 0 0 1 14.602-2.839 43.085 43.085 0 0 1 3.479-.274h2.838c1.465 0 2.93 0 4.395.137 30.441 1.831 55.801 22.798 64.224 50.997 1.144 3.754 2.014 7.645 2.426 11.628.412 2.93.595 5.859.595 8.881 0 2.014-.091 4.028-.274 6.043l.045-.046Z"/><path fill="#322E4B" d="M336.822 361.635H289.26v47.564h47.562v-47.564Z"/><path fill="#CEBB6B" d="M750.182 420.506c3.982 8.744 9.201 16.526 15.427 23.164 24.261 26.002 63.262 34.974 97.503 19.547 34.241-15.473 53.329-50.631 49.896-86.063-.87-9.064-3.204-18.128-7.141-26.918-19.363-42.94-69.946-62.121-112.93-42.711-42.984 19.41-62.118 69.995-42.709 112.935l-.046.046Z"/><path fill="#F8E493" d="M765.609 443.716c24.261 26.002 63.262 34.974 97.503 19.547 34.241-15.473 53.329-50.631 49.896-86.063-24.261-26.002-63.263-34.975-97.503-19.548-34.241 15.473-53.33 50.631-49.896 86.064Z"/><path fill="#322E4B" d="M828.047 286.284c-54.657 0-99.105 44.451-99.105 99.11s44.448 99.11 99.105 99.11c54.657 0 99.106-44.451 99.106-99.11s-44.449-99.11-99.106-99.11Zm-61.706 135.458c-6.363-10.621-9.934-23.072-9.934-36.348 0-39.461 32.135-71.643 71.64-71.643 31.769 0 58.823 20.829 68.115 49.532 2.289 6.958 3.525 14.42 3.525 22.157 0 39.506-32.135 71.643-71.64 71.643-26.275 0-49.255-14.191-61.706-35.341Z"/><path fill="#322E4B" d="M851.805 361.635h-47.561v47.564h47.561v-47.564Z"/></svg>